<svg width="21" height="23" viewBox="0 0 21 23" fill="none" xmlns="http://www.w3.org/2000/svg">
<path d="M1.3708 0.0102717C1.48741 -0.00872304 1.60686 0.000286582 1.7193 0.0365569C1.83173 0.0728272 1.93393 0.135318 2.01746 0.218872L2.98 1.1829L3.94254 0.218872C4.01174 0.149493 4.09396 0.0944477 4.18447 0.0568901C4.27498 0.0193324 4.37201 0 4.47 0C4.56799 0 4.66502 0.0193324 4.75553 0.0568901C4.84604 0.0944477 4.92826 0.149493 4.99746 0.218872L5.96 1.1829L6.92254 0.218872C6.99174 0.149493 7.07396 0.0944477 7.16447 0.0568901C7.25498 0.0193324 7.35201 0 7.45 0C7.54799 0 7.64502 0.0193324 7.73553 0.0568901C7.82604 0.0944477 7.90826 0.149493 7.97746 0.218872L8.94 1.1829L9.90254 0.218872C9.97174 0.149493 10.054 0.0944477 10.1445 0.0568901C10.235 0.0193324 10.332 0 10.43 0C10.528 0 10.625 0.0193324 10.7155 0.0568901C10.806 0.0944477 10.8883 0.149493 10.9575 0.218872L11.92 1.1829L12.8825 0.218872C12.9517 0.149493 13.034 0.0944477 13.1245 0.0568901C13.215 0.0193324 13.312 0 13.41 0C13.508 0 13.605 0.0193324 13.6955 0.0568901C13.786 0.0944477 13.8683 0.149493 13.9375 0.218872L14.9 1.1829L15.8625 0.218872C15.9317 0.149493 16.014 0.0944477 16.1045 0.0568901C16.195 0.0193324 16.292 0 16.39 0C16.488 0 16.585 0.0193324 16.6755 0.0568901C16.766 0.0944477 16.8483 0.149493 16.9175 0.218872L17.88 1.1829L18.8425 0.218872C18.926 0.135331 19.0282 0.0728327 19.1405 0.0365309C19.2529 0.00022898 19.3723 -0.0088361 19.4889 0.0100833C19.6055 0.0290028 19.7159 0.0753646 19.811 0.145345C19.9061 0.215325 19.9833 0.306919 20.036 0.412572L20.781 1.90257C20.833 2.00617 20.86 2.12045 20.86 2.23633V20.1163C20.86 20.2322 20.833 20.3465 20.781 20.4501L20.036 21.9401C19.9832 22.0455 19.9061 22.1368 19.8111 22.2066C19.7161 22.2764 19.6059 22.3227 19.4895 22.3416C19.3732 22.3605 19.254 22.3515 19.1418 22.3154C19.0296 22.2793 18.9275 22.217 18.844 22.1338L17.88 21.1698L16.9175 22.1338C16.8483 22.2032 16.766 22.2582 16.6755 22.2958C16.585 22.3333 16.488 22.3527 16.39 22.3527C16.292 22.3527 16.195 22.3333 16.1045 22.2958C16.014 22.2582 15.9317 22.2032 15.8625 22.1338L14.9 21.1698L13.9375 22.1338C13.8683 22.2032 13.786 22.2582 13.6955 22.2958C13.605 22.3333 13.508 22.3527 13.41 22.3527C13.312 22.3527 13.215 22.3333 13.1245 22.2958C13.034 22.2582 12.9517 22.2032 12.8825 22.1338L11.92 21.1698L10.9575 22.1338C10.8883 22.2032 10.806 22.2582 10.7155 22.2958C10.625 22.3333 10.528 22.3527 10.43 22.3527C10.332 22.3527 10.235 22.3333 10.1445 22.2958C10.054 22.2582 9.97174 22.2032 9.90254 22.1338L8.94 21.1698L7.97746 22.1338C7.90826 22.2032 7.82604 22.2582 7.73553 22.2958C7.64502 22.3333 7.54799 22.3527 7.45 22.3527C7.35201 22.3527 7.25498 22.3333 7.16447 22.2958C7.07396 22.2582 6.99174 22.2032 6.92254 22.1338L5.96 21.1698L4.99746 22.1338C4.92826 22.2032 4.84604 22.2582 4.75553 22.2958C4.66502 22.3333 4.56799 22.3527 4.47 22.3527C4.37201 22.3527 4.27498 22.3333 4.18447 22.2958C4.09396 22.2582 4.01174 22.2032 3.94254 22.1338L2.98 21.1698L2.01746 22.1338C1.93398 22.2173 1.83184 22.2798 1.71946 22.3161C1.60708 22.3524 1.48768 22.3615 1.37111 22.3426C1.25454 22.3237 1.14413 22.2773 1.049 22.2073C0.953871 22.1373 0.87674 22.0457 0.82397 21.9401L0.07897 20.4501C0.0270475 20.3465 7.75982e-06 20.2322 0 20.1163V2.23633C7.75982e-06 2.12045 0.0270475 2.00617 0.07897 1.90257L0.82397 0.412572C0.876733 0.306992 0.953826 0.21546 1.0489 0.145516C1.14397 0.0755719 1.2543 0.0292175 1.3708 0.0102717ZM1.69413 2.00389L1.49 2.41215V19.9405L1.69413 20.3488L2.45403 19.5889C2.59374 19.4492 2.7832 19.3707 2.98075 19.3707C3.17829 19.3707 3.36775 19.4492 3.50746 19.5889L4.47 20.5529L5.43254 19.5904C5.50174 19.521 5.58396 19.4659 5.67447 19.4284C5.76498 19.3908 5.86201 19.3715 5.96 19.3715C6.05799 19.3715 6.15502 19.3908 6.24553 19.4284C6.33604 19.4659 6.41826 19.521 6.48746 19.5904L7.45 20.5529L8.41254 19.5904C8.48174 19.521 8.56396 19.4659 8.65447 19.4284C8.74498 19.3908 8.84201 19.3715 8.94 19.3715C9.03799 19.3715 9.13502 19.3908 9.22553 19.4284C9.31604 19.4659 9.39826 19.521 9.46746 19.5904L10.43 20.5529L11.3925 19.5904C11.4617 19.521 11.544 19.4659 11.6345 19.4284C11.725 19.3908 11.822 19.3715 11.92 19.3715C12.018 19.3715 12.115 19.3908 12.2055 19.4284C12.296 19.4659 12.3783 19.521 12.4475 19.5904L13.41 20.5529L14.3725 19.5904C14.4417 19.521 14.524 19.4659 14.6145 19.4284C14.705 19.3908 14.802 19.3715 14.9 19.3715C14.998 19.3715 15.095 19.3908 15.1855 19.4284C15.276 19.4659 15.3583 19.521 15.4275 19.5904L16.39 20.5529L17.3525 19.5904C17.4217 19.521 17.504 19.4659 17.5945 19.4284C17.685 19.3908 17.782 19.3715 17.88 19.3715C17.978 19.3715 18.075 19.3908 18.1655 19.4284C18.256 19.4659 18.3383 19.521 18.4075 19.5904L19.1659 20.3488L19.37 19.9405V2.41215L19.1659 2.00389L18.406 2.76379C18.2663 2.90346 18.0768 2.98192 17.8793 2.98192C17.6817 2.98192 17.4922 2.90346 17.3525 2.76379L16.39 1.79976L15.4275 2.76379C15.3583 2.83317 15.276 2.88822 15.1855 2.92577C15.095 2.96333 14.998 2.98266 14.9 2.98266C14.802 2.98266 14.705 2.96333 14.6145 2.92577C14.524 2.88822 14.4417 2.83317 14.3725 2.76379L13.41 1.79976L12.4475 2.76379C12.3783 2.83317 12.296 2.88822 12.2055 2.92577C12.115 2.96333 12.018 2.98266 11.92 2.98266C11.822 2.98266 11.725 2.96333 11.6345 2.92577C11.544 2.88822 11.4617 2.83317 11.3925 2.76379L10.43 1.79976L9.46746 2.76379C9.39826 2.83317 9.31604 2.88822 9.22553 2.92577C9.13502 2.96333 9.03799 2.98266 8.94 2.98266C8.84201 2.98266 8.74498 2.96333 8.65447 2.92577C8.56396 2.88822 8.48174 2.83317 8.41254 2.76379L7.45 1.79976L6.48746 2.76379C6.41826 2.83317 6.33604 2.88822 6.24553 2.92577C6.15502 2.96333 6.05799 2.98266 5.96 2.98266C5.86201 2.98266 5.76498 2.96333 5.67447 2.92577C5.58396 2.88822 5.50174 2.83317 5.43254 2.76379L4.47 1.79976L3.50746 2.76379C3.43826 2.83317 3.35604 2.88822 3.26553 2.92577C3.17502 2.96333 3.07799 2.98266 2.98 2.98266C2.88201 2.98266 2.78498 2.96333 2.69447 2.92577C2.60396 2.88822 2.52174 2.83317 2.45254 2.76379L1.69413 2.00389Z" fill="#FF914D"/>
<path d="M2.9801 5.96131C2.9801 5.76372 3.05859 5.57423 3.19831 5.43451C3.33802 5.2948 3.52752 5.21631 3.7251 5.21631H12.6651C12.8627 5.21631 13.0522 5.2948 13.1919 5.43451C13.3316 5.57423 13.4101 5.76372 13.4101 5.96131C13.4101 6.15889 13.3316 6.34839 13.1919 6.4881C13.0522 6.62782 12.8627 6.70631 12.6651 6.70631H3.7251C3.52752 6.70631 3.33802 6.62782 3.19831 6.4881C3.05859 6.34839 2.9801 6.15889 2.9801 5.96131ZM2.9801 8.94131C2.9801 8.74372 3.05859 8.55423 3.19831 8.41451C3.33802 8.2748 3.52752 8.19631 3.7251 8.19631H12.6651C12.8627 8.19631 13.0522 8.2748 13.1919 8.41451C13.3316 8.55423 13.4101 8.74372 13.4101 8.94131C13.4101 9.13889 13.3316 9.32839 13.1919 9.4681C13.0522 9.60782 12.8627 9.68631 12.6651 9.68631H3.7251C3.52752 9.68631 3.33802 9.60782 3.19831 9.4681C3.05859 9.32839 2.9801 9.13889 2.9801 8.94131ZM2.9801 11.9213C2.9801 11.7237 3.05859 11.5342 3.19831 11.3945C3.33802 11.2548 3.52752 11.1763 3.7251 11.1763H12.6651C12.8627 11.1763 13.0522 11.2548 13.1919 11.3945C13.3316 11.5342 13.4101 11.7237 13.4101 11.9213C13.4101 12.1189 13.3316 12.3084 13.1919 12.4481C13.0522 12.5878 12.8627 12.6663 12.6651 12.6663H3.7251C3.52752 12.6663 3.33802 12.5878 3.19831 12.4481C3.05859 12.3084 2.9801 12.1189 2.9801 11.9213ZM2.9801 14.9013C2.9801 14.7037 3.05859 14.5142 3.19831 14.3745C3.33802 14.2348 3.52752 14.1563 3.7251 14.1563H12.6651C12.8627 14.1563 13.0522 14.2348 13.1919 14.3745C13.3316 14.5142 13.4101 14.7037 13.4101 14.9013C13.4101 15.0989 13.3316 15.2884 13.1919 15.4281C13.0522 15.5678 12.8627 15.6463 12.6651 15.6463H3.7251C3.52752 15.6463 3.33802 15.5678 3.19831 15.4281C3.05859 15.2884 2.9801 15.0989 2.9801 14.9013ZM14.9001 5.96131C14.9001 5.76372 14.9786 5.57423 15.1183 5.43451C15.258 5.2948 15.4475 5.21631 15.6451 5.21631H17.1351C17.3327 5.21631 17.5222 5.2948 17.6619 5.43451C17.8016 5.57423 17.8801 5.76372 17.8801 5.96131C17.8801 6.15889 17.8016 6.34839 17.6619 6.4881C17.5222 6.62782 17.3327 6.70631 17.1351 6.70631H15.6451C15.4475 6.70631 15.258 6.62782 15.1183 6.4881C14.9786 6.34839 14.9001 6.15889 14.9001 5.96131ZM14.9001 8.94131C14.9001 8.74372 14.9786 8.55423 15.1183 8.41451C15.258 8.2748 15.4475 8.19631 15.6451 8.19631H17.1351C17.3327 8.19631 17.5222 8.2748 17.6619 8.41451C17.8016 8.55423 17.8801 8.74372 17.8801 8.94131C17.8801 9.13889 17.8016 9.32839 17.6619 9.4681C17.5222 9.60782 17.3327 9.68631 17.1351 9.68631H15.6451C15.4475 9.68631 15.258 9.60782 15.1183 9.4681C14.9786 9.32839 14.9001 9.13889 14.9001 8.94131ZM14.9001 11.9213C14.9001 11.7237 14.9786 11.5342 15.1183 11.3945C15.258 11.2548 15.4475 11.1763 15.6451 11.1763H17.1351C17.3327 11.1763 17.5222 11.2548 17.6619 11.3945C17.8016 11.5342 17.8801 11.7237 17.8801 11.9213C17.8801 12.1189 17.8016 12.3084 17.6619 12.4481C17.5222 12.5878 17.3327 12.6663 17.1351 12.6663H15.6451C15.4475 12.6663 15.258 12.5878 15.1183 12.4481C14.9786 12.3084 14.9001 12.1189 14.9001 11.9213ZM14.9001 14.9013C14.9001 14.7037 14.9786 14.5142 15.1183 14.3745C15.258 14.2348 15.4475 14.1563 15.6451 14.1563H17.1351C17.3327 14.1563 17.5222 14.2348 17.6619 14.3745C17.8016 14.5142 17.8801 14.7037 17.8801 14.9013C17.8801 15.0989 17.8016 15.2884 17.6619 15.4281C17.5222 15.5678 17.3327 15.6463 17.1351 15.6463H15.6451C15.4475 15.6463 15.258 15.5678 15.1183 15.4281C14.9786 15.2884 14.9001 15.0989 14.9001 14.9013Z" fill="#FF914D"/>
</svg>
