<svg width="21" height="21" viewBox="0 0 21 21" fill="none" xmlns="http://www.w3.org/2000/svg">
<path d="M5.52292 9.0375C8.57314 9.0375 11.0458 11.5102 11.0458 14.5604C11.0458 17.6106 8.57314 20.0833 5.52292 20.0833C2.47269 20.0833 0 17.6106 0 14.5604C0 11.5102 2.47269 9.0375 5.52292 9.0375ZM5.52292 16.9503C5.17657 16.9503 4.8958 17.2311 4.8958 17.5774C4.8958 17.9238 5.17657 18.2046 5.52292 18.2046C5.86926 18.2046 6.15003 17.9238 6.15003 17.5774C6.15003 17.2311 5.86926 16.9503 5.52292 16.9503ZM16.8198 0C18.6222 0 20.0833 1.46114 20.0833 3.26354V14.8115C20.0833 16.6139 18.6222 18.075 16.8198 18.075L11.0231 18.0762C11.3212 17.6109 11.5619 17.1052 11.7351 16.5692L16.8198 16.5687C17.7903 16.5687 18.5771 15.782 18.5771 14.8115V3.26354C18.5771 2.29302 17.7903 1.50625 16.8198 1.50625H5.27187C4.30135 1.50625 3.51458 2.29302 3.51458 3.26354L3.51416 8.34827C2.97816 8.52147 2.47248 8.76211 2.00712 9.06019L2.00833 3.26354C2.00833 1.46114 3.46947 0 5.27187 0H16.8198ZM5.52296 11.0489C4.47064 11.0489 3.6509 11.8697 3.66186 13.0114C3.66452 13.2886 3.89146 13.5113 4.16874 13.5086C4.44602 13.5059 4.66864 13.279 4.66598 13.0017C4.6604 12.4203 5.02713 12.0531 5.52296 12.0531C5.9973 12.0531 6.37992 12.4466 6.37992 13.0065C6.37992 13.2318 6.30432 13.3993 6.06066 13.6868L5.96124 13.8005L5.69476 14.0918C5.20843 14.6356 5.02088 14.9877 5.02088 15.5652C5.02088 15.8425 5.24567 16.0673 5.52296 16.0673C5.80025 16.0673 6.02504 15.8425 6.02504 15.5652C6.02504 15.332 6.10177 15.161 6.35014 14.8679L6.45151 14.752L6.71836 14.4603C7.19802 13.9238 7.38408 13.5749 7.38408 13.0065C7.38408 11.8983 6.5583 11.0489 5.52296 11.0489ZM10.7948 3.0125C11.1761 3.0125 11.4912 3.29583 11.541 3.66343L11.5479 3.76562V9.0375H15.3118C15.7277 9.0375 16.0649 9.37468 16.0649 9.79062C16.0649 10.1719 15.7816 10.487 15.414 10.5369L15.3118 10.5437H10.7948C10.4135 10.5437 10.0984 10.2604 10.0485 9.89282L10.0417 9.79062V3.76562C10.0417 3.34968 10.3788 3.0125 10.7948 3.0125Z" fill="#FF914D"/>
</svg>
