<svg width="29" height="21" viewBox="0 0 29 21" fill="none" xmlns="http://www.w3.org/2000/svg">
<path d="M21.8339 6.73819C21.9682 6.81579 22.1143 6.85261 22.2587 6.85261C22.5521 6.85261 22.8376 6.70024 22.9951 6.4278C23.0721 6.2947 23.1089 6.14913 23.1095 6.00526C23.11 5.7113 22.9577 5.4247 22.6847 5.26724C22.2785 5.03218 21.7591 5.17095 21.5241 5.57706C21.4471 5.71073 21.4102 5.8563 21.4097 5.9996C21.4091 6.29413 21.5615 6.58017 21.8339 6.73819Z" fill="#FF914D"/>
<path d="M14.2143 12.9189C13.9436 13.077 13.7929 13.3619 13.7935 13.6541C13.7935 13.7991 13.8308 13.9464 13.9096 14.0812C14.0676 14.3514 14.3519 14.502 14.6436 14.502C14.7892 14.502 14.937 14.4647 15.0713 14.3859C15.342 14.2279 15.4927 13.9436 15.4927 13.6507C15.4927 13.5057 15.4553 13.3585 15.3766 13.2242C15.1398 12.8187 14.6199 12.6822 14.2143 12.9189Z" fill="#FF914D"/>
<path d="M16.6525 6.86851C16.7986 6.86851 16.9465 6.83113 17.0813 6.75183C17.3515 6.59324 17.5021 6.30834 17.5016 6.01607C17.501 5.87107 17.4636 5.72381 17.3849 5.589C17.1476 5.18459 16.627 5.04865 16.222 5.28597C15.9519 5.444 15.8012 5.7289 15.8018 6.02117C15.8023 6.16673 15.8397 6.314 15.9184 6.44824C16.0765 6.71841 16.3608 6.86851 16.6525 6.86851Z" fill="#FF914D"/>
<path d="M13.8872 11.7153C14.3545 11.7131 14.7323 11.3341 14.7334 10.8674V10.8623C14.7311 10.3928 14.3494 10.0139 13.8804 10.0161C13.4125 10.0184 13.0353 10.3973 13.0342 10.864V10.8691C13.0359 11.3375 13.4159 11.7153 13.8838 11.7153H13.8872Z" fill="#FF914D"/>
<path d="M19.4692 6.10571C19.9382 6.10571 20.3189 5.72509 20.3189 5.2561C20.3189 4.78712 19.9382 4.40649 19.4692 4.40649C18.9997 4.40649 18.6196 4.78712 18.6196 5.2561C18.6196 5.72565 18.9997 6.10571 19.4692 6.10571Z" fill="#FF914D"/>
<path d="M14.1967 8.80913C14.3298 8.88559 14.4748 8.92184 14.6181 8.92184C14.9126 8.92184 15.1992 8.76835 15.3561 8.49421C15.4326 8.36054 15.4688 8.21497 15.4688 8.0711C15.4683 7.77714 15.3148 7.49167 15.0412 7.33478C14.634 7.10142 14.1146 7.24245 13.8818 7.6497C13.8047 7.78337 13.769 7.92893 13.769 8.0728C13.7696 8.36677 13.9231 8.6528 14.1967 8.80913Z" fill="#FF914D"/>
<path d="M17.1163 14.9513C16.7091 14.7174 16.1897 14.8578 15.9563 15.2651C15.8793 15.3982 15.843 15.5437 15.843 15.6876C15.843 15.9816 15.9965 16.2676 16.2695 16.4251V16.4245C16.4032 16.5015 16.5488 16.5378 16.6921 16.5378C16.9866 16.5378 17.2726 16.3849 17.4295 16.1113C17.5066 15.9776 17.5428 15.832 17.5428 15.6887C17.5428 15.3942 17.3893 15.1082 17.1163 14.9513Z" fill="#FF914D"/>
<path d="M24.7363 12.8884C24.3297 12.6544 23.8103 12.7938 23.5758 13.2004C23.4987 13.3335 23.4625 13.4791 23.4619 13.623C23.4619 13.9169 23.6143 14.203 23.8879 14.3604C24.0215 14.4375 24.1671 14.4743 24.311 14.4743C24.6049 14.4743 24.8904 14.3219 25.0479 14.0489C25.1249 13.9152 25.1611 13.7697 25.1617 13.6264C25.1617 13.3318 25.0094 13.0458 24.7363 12.8884Z" fill="#FF914D"/>
<path d="M24.3049 8.89408C24.4499 8.89408 24.596 8.85727 24.7302 8.7791C25.0015 8.62164 25.1533 8.33787 25.1539 8.04504C25.1539 7.90004 25.1171 7.75278 25.0389 7.61797C24.8033 7.21186 24.2833 7.07366 23.8778 7.30928C23.6065 7.46674 23.4547 7.75108 23.4541 8.04334C23.4541 8.18834 23.4909 8.33561 23.5691 8.47041C23.7265 8.74229 24.012 8.89408 24.3049 8.89408Z" fill="#FF914D"/>
<path d="M25.0536 9.98389C24.584 9.98446 24.2045 10.3651 24.2051 10.8346C24.2056 11.303 24.5863 11.6831 25.0547 11.6831H25.0558C25.5254 11.682 25.9049 11.3013 25.9043 10.8318C25.9037 10.3628 25.5226 9.98276 25.0536 9.98389Z" fill="#FF914D"/>
<path d="M19.483 15.5772C19.014 15.5783 18.6345 15.96 18.6362 16.429C18.6374 16.8974 19.0174 17.2764 19.4853 17.2764H19.4881C19.9571 17.2752 20.3366 16.8935 20.3355 16.4245C20.3338 15.9549 19.9526 15.576 19.483 15.5772Z" fill="#FF914D"/>
<path d="M21.8459 14.9375C21.5751 15.095 21.4239 15.3793 21.4233 15.6722C21.4233 15.8172 21.4607 15.9644 21.5389 16.0992C21.6969 16.37 21.9818 16.5212 22.2741 16.5212C22.4191 16.5212 22.5664 16.4844 22.7006 16.4062C22.9713 16.2482 23.1231 15.9639 23.1231 15.6716C23.1231 15.526 23.0858 15.3788 23.0076 15.2445C22.7714 14.839 22.2514 14.7013 21.8459 14.9375Z" fill="#FF914D"/>
<path d="M19.4691 18.6733C15.1506 18.6733 11.6372 15.16 11.6372 10.8416C11.6372 6.52321 15.1506 3.00991 19.4691 3.00991C23.7875 3.00991 27.3008 6.52321 27.3008 10.8416C27.3008 15.16 23.7875 18.6733 19.4691 18.6733ZM25.9903 3.89769L26.4456 3.4423L27.1793 4.17591C27.3451 4.34187 27.5626 4.42479 27.78 4.42479C27.9975 4.42479 28.2149 4.34187 28.3808 4.17591C28.7126 3.84411 28.7126 3.3062 28.3808 2.9744L27.0477 1.64136C27.0472 1.64091 27.0469 1.6404 27.0464 1.63994C27.0459 1.63949 27.0454 1.63909 27.045 1.63864L25.6552 0.24885C25.3234 -0.0829501 24.7855 -0.0829501 24.4536 0.24885C24.1219 0.580651 24.1219 1.11857 24.4536 1.45037L25.2441 2.24079L24.6435 2.84135C23.1524 1.87359 21.3753 1.31069 19.4691 1.31069C17.5628 1.31069 15.7857 1.87359 14.2945 2.8414L13.694 2.24079L14.4843 1.45037C14.8162 1.11857 14.8162 0.580651 14.4843 0.24885C14.1526 -0.0829501 13.6146 -0.0829501 13.2828 0.24885L11.8932 1.63853C11.8927 1.63904 11.8921 1.63943 11.8916 1.63994C11.8911 1.64045 11.8907 1.64102 11.8902 1.64153L10.5573 2.9744C10.2255 3.3062 10.2255 3.84417 10.5573 4.17591C10.7231 4.34187 10.9406 4.42479 11.158 4.42479C11.3755 4.42479 11.5929 4.34187 11.7588 4.17591L12.4924 3.44236L12.9478 3.89775C11.0964 5.63747 9.93799 8.10666 9.93799 10.8416C9.93799 16.0969 14.2136 20.3725 19.4691 20.3725C24.7245 20.3725 29.0001 16.0969 29.0001 10.8416C29.0001 8.1066 27.8417 5.63747 25.9903 3.89769Z" fill="#FF914D"/>
<path d="M19.718 12.4002L21.6337 10.4846C21.9656 10.1529 21.9656 9.61488 21.6338 9.28308C21.302 8.95122 20.7641 8.95122 20.4323 9.28302L19.1172 10.5979L18.5062 9.98707C18.1744 9.65532 17.6365 9.65532 17.3047 9.98712C16.973 10.319 16.973 10.8569 17.3048 11.1887L18.5165 12.4002C18.6824 12.5661 18.8998 12.649 19.1172 12.649C19.3346 12.649 19.5521 12.5661 19.718 12.4002Z" fill="#FF914D"/>
<path d="M7.87185 3.43335H5.49122C5.022 3.43335 4.6416 3.81375 4.6416 4.28296C4.6416 4.75217 5.022 5.13257 5.49122 5.13257H7.87185C8.34106 5.13257 8.72147 4.75217 8.72147 4.28296C8.72147 3.81375 8.34106 3.43335 7.87185 3.43335Z" fill="#FF914D"/>
<path d="M7.8722 6.71216H4.60474C4.13553 6.71216 3.75513 7.09256 3.75513 7.56177C3.75513 8.03098 4.13553 8.41138 4.60474 8.41138H7.8722C8.34142 8.41138 8.72182 8.03098 8.72182 7.56177C8.72182 7.09256 8.34142 6.71216 7.8722 6.71216Z" fill="#FF914D"/>
<path d="M7.8717 9.9917H3.16969C2.70047 9.9917 2.32007 10.3721 2.32007 10.8413C2.32007 11.3105 2.70047 11.6909 3.16969 11.6909H7.8717C8.34091 11.6909 8.72131 11.3105 8.72131 10.8413C8.72131 10.3721 8.34091 9.9917 7.8717 9.9917Z" fill="#FF914D"/>
<path d="M7.87225 13.2708H1.99952C1.5303 13.2708 1.1499 13.6512 1.1499 14.1204C1.1499 14.5896 1.5303 14.97 1.99952 14.97H7.87225C8.34146 14.97 8.72187 14.5896 8.72187 14.1204C8.72187 13.6512 8.34146 13.2708 7.87225 13.2708Z" fill="#FF914D"/>
<path d="M7.8721 16.55H0.849617C0.380402 16.55 0 16.9304 0 17.3997C0 17.8689 0.380402 18.2493 0.849617 18.2493H7.8721C8.34132 18.2493 8.72172 17.8689 8.72172 17.3997C8.72172 16.9304 8.34132 16.55 7.8721 16.55Z" fill="#FF914D"/>
</svg>
