<svg width="25" height="24" viewBox="0 0 25 24" fill="none" xmlns="http://www.w3.org/2000/svg">
<path d="M19.2311 10.892V21.1537H1.92311V7.69194H12.1849L17.9542 1.92261H1.92311C0.860593 1.92261 0 2.7832 0 3.84572V21.1537C0 22.2162 0.860593 23.0768 1.92311 23.0768H19.2311C20.2937 23.0768 21.1543 22.2162 21.1543 21.1537V8.96985L19.2311 10.892Z" fill="#FF914D"/>
<path d="M23.9975 3.40631L24.5023 2.9015C25.1658 2.23802 25.1658 1.16108 24.5023 0.497605C23.8389 -0.165868 22.7619 -0.165868 22.0984 0.497605L21.5936 1.00242L23.9975 3.40631Z" fill="#FF914D"/>
<path d="M20.2341 2.36206L10.0723 12.5238L9.6156 15.3844L12.4762 14.9277L22.638 4.76595L20.2341 2.36206Z" fill="#FF914D"/>
</svg>
