<svg width="14" height="18" viewBox="0 0 14 18" fill="none" xmlns="http://www.w3.org/2000/svg">
<path d="M2.58026 18H11.4197C13.1427 18 14 17.1184 14 15.3722V7.74906C14 6.66605 13.8835 6.19587 13.2176 5.50746L8.62307 0.797552C7.9905 0.14271 7.47442 0 6.53389 0H2.58026C0.865638 0 0 0.889934 0 2.6362V15.3722C0 17.1269 0.865638 18 2.58026 18ZM2.64685 16.6483C1.78952 16.6483 1.34006 16.1866 1.34006 15.347V2.66139C1.34006 1.83023 1.78952 1.35167 2.65516 1.35167H6.35075V6.22947C6.35075 7.2873 6.88345 7.80781 7.91557 7.80781H12.6599V15.347C12.6599 16.1866 12.2188 16.6483 11.3532 16.6483H2.64685ZM8.0654 6.54011C7.74077 6.54011 7.6076 6.40578 7.6076 6.06996V1.61194L12.4019 6.54011H8.0654ZM10.063 10.1166H3.74552C3.4459 10.1166 3.22948 10.3433 3.22948 10.6287C3.22948 10.9226 3.4459 11.1493 3.74552 11.1493H10.063C10.3543 11.1493 10.5791 10.9226 10.5791 10.6287C10.5791 10.3433 10.3543 10.1166 10.063 10.1166ZM10.063 13.0467H3.74552C3.4459 13.0467 3.22948 13.2817 3.22948 13.5755C3.22948 13.861 3.4459 14.0793 3.74552 14.0793H10.063C10.3543 14.0793 10.5791 13.861 10.5791 13.5755C10.5791 13.2817 10.3543 13.0467 10.063 13.0467Z" fill="#FF914D"/>
</svg>
