<svg width="25" height="15" viewBox="0 0 25 15" fill="none" xmlns="http://www.w3.org/2000/svg">
<path d="M6.88344 8.41667C9.00053 8.41667 10.7168 6.70042 10.7168 4.58333C10.7168 2.46624 9.00053 0.75 6.88344 0.75C4.76635 0.75 3.05011 2.46624 3.05011 4.58333C3.05011 6.70042 4.76635 8.41667 6.88344 8.41667Z" stroke="#FF914D" stroke-width="1.5" stroke-linecap="round" stroke-linejoin="round"/>
<path d="M13.7834 2.2832H23.7501" stroke="#FF914D" stroke-width="1.5" stroke-linecap="round" stroke-linejoin="round"/>
<path d="M13.7834 6.8833H23.7501" stroke="#FF914D" stroke-width="1.5" stroke-linecap="round" stroke-linejoin="round"/>
<path d="M16.8502 12.25H23.7502" stroke="#FF914D" stroke-width="1.5" stroke-linecap="round" stroke-linejoin="round"/>
<path d="M0.750183 13.7834C1.09887 12.2482 1.89091 10.8876 3.00141 9.91586C4.11191 8.94417 5.47772 8.41675 6.88352 8.41675C8.28931 8.41675 9.65512 8.94417 10.7656 9.91586C11.8761 10.8876 12.6682 12.2482 13.0169 13.7834" stroke="#FF914D" stroke-width="1.5" stroke-linecap="round" stroke-linejoin="round"/>
</svg>
