<svg width="20" height="19" viewBox="0 0 20 19" fill="none" xmlns="http://www.w3.org/2000/svg">
<path d="M15.3849 8.7136V16.923H1.53849V6.15355H9.74787L14.3633 1.53809H1.53849C0.688474 1.53809 0 2.22656 0 3.07658V16.923C0 17.773 0.688474 18.4615 1.53849 18.4615H15.3849C16.2349 18.4615 16.9234 17.773 16.9234 16.923V7.17588L15.3849 8.7136Z" fill="#FF914D"/>
<path d="M19.198 2.72505L19.6019 2.3212C20.1326 1.79042 20.1326 0.928863 19.6019 0.398084C19.0711 -0.132695 18.2095 -0.132695 17.6788 0.398084L17.2749 0.801938L19.198 2.72505Z" fill="#FF914D"/>
<path d="M16.1872 1.88965L8.05784 10.019L7.69244 12.3075L9.98095 11.9421L18.1103 3.81276L16.1872 1.88965Z" fill="#FF914D"/>
</svg>
