<svg width="196" height="40" viewBox="0 0 196 40" fill="none" xmlns="http://www.w3.org/2000/svg">
<mask id="mask0_464_944" style="mask-type:luminance" maskUnits="userSpaceOnUse" x="0" y="0" width="71" height="40">
<path d="M0 0H70.8V39.4375H0V0Z" fill="white"/>
</mask>
<g mask="url(#mask0_464_944)">
<mask id="mask1_464_944" style="mask-type:luminance" maskUnits="userSpaceOnUse" x="-1" y="0" width="73" height="40">
<path d="M71.1719 0H-0.0281372V40H71.1719V0Z" fill="white"/>
</mask>
<g mask="url(#mask1_464_944)">
<path d="M10.5594 33.9968C11.9157 35.2062 13.7063 35.8093 15.525 35.7843L62.5438 34.9406L17.6563 34.2125C15.5407 34.1812 13.4313 33.8562 11.4313 33.1562C10.6 32.8687 9.76254 32.5062 9.03754 32.0593C9.03754 32.0593 9.45316 33.0156 10.5594 33.9968Z" fill="#FF914D"/>
<path d="M17.1375 12.2937C17.8938 9.37494 21.1719 5.93743 21.1719 5.93743C28.4625 3.29056 42.8469 3.10931 42.8469 3.10931C35.825 2.13743 23.3844 2.48118 20.0906 5.34369C17.7406 7.38431 15.4625 11.1718 14.35 13.1718C14.0531 13.7062 14.4969 14.3437 15.1 14.2531C30.9 11.8562 52.3907 12.3218 52.3907 12.3218C34.5688 9.47806 17.1375 12.2937 17.1375 12.2937Z" fill="#FF914D"/>
<path d="M25.6719 26.7688C28.7688 27.1626 37.2657 27.4532 39.9657 25.4907C39.9657 25.4907 30.5157 26.3001 25.6001 25.1657C20.6844 24.0313 18.2563 31.4313 19.2813 32.6188C20.3063 33.8063 28.0844 33.4282 28.0844 33.4282C28.0844 33.4282 22.0001 32.9969 20.9907 31.4844C19.9844 29.9719 22.5751 26.3719 25.6719 26.7688Z" fill="#FF914D"/>
<path d="M8.13755 19.7812C8.13755 19.7812 6.62505 24.8937 10.9438 26.4437C15.2657 27.9906 20.1626 25.3281 20.1626 25.3281C20.1626 25.3281 13.3938 26.6219 11.2594 24.4906C9.12818 22.3562 10.2876 21.1406 10.2876 21.1406C10.2876 21.1406 12.8251 20.5187 15.1501 22.625C17.4719 24.7344 21.6563 22.7344 21.6563 22.7344C21.6563 22.7344 17.2813 22.0875 14.7626 20.0344C12.2407 17.9812 8.13755 19.7812 8.13755 19.7812Z" fill="#FF914D"/>
<mask id="mask2_464_944" style="mask-type:luminance" maskUnits="userSpaceOnUse" x="2" y="0" width="69" height="40">
<path d="M2.37195 0.128174H70.7532V39.4376H2.37195V0.128174Z" fill="white"/>
</mask>
<g mask="url(#mask2_464_944)">
<path d="M7.18752 37.2626C5.95315 37.2532 4.94377 36.2719 4.90002 35.0376C4.74065 30.2626 4.80627 23.3813 4.80627 23.3813C6.57502 20.4782 8.60315 18.3782 8.60315 18.3782C6.48127 14.85 13.1063 14.3094 13.1063 14.3094C14.9407 9.80629 19.05 4.98129 19.05 4.98129C25.2438 0.518792 44.2875 1.07504 44.2875 1.07504C32.2438 -0.759334 20.4688 1.07504 18.0938 3.23754C15.7157 5.39692 12.3688 12.0938 12.3688 12.0938C12.3688 12.0938 8.47815 13.2813 7.07502 14.4875C5.66877 15.6938 6.15627 18.4125 6.15627 18.4125C4.21252 20.3594 3.27502 22.4094 3.27502 22.4094L2.4844 35.3001C2.1219 39.1907 4.42815 39.4782 4.42815 39.4782L70.7532 37.8219L7.18752 37.2626Z" fill="#FF914D"/>
</g>
<path d="M5.68751 16.3625C5.68751 16.3625 5.34689 14.7344 6.75001 13.9188C6.75001 13.9188 5.02189 14.075 3.63439 14.5438C2.25001 15.0094 2.62814 12.5438 4.75314 12.5625C6.87501 12.5813 8.28127 12.9219 8.28127 12.9219C8.28127 12.9219 9.99377 11.9875 11.6469 11.5532C11.6469 11.5532 5.47189 10.0594 2.73439 11.3188C1.24574e-05 12.5813 0.787513 16.5407 2.44376 16.9719C4.10314 17.4063 5.68751 16.3625 5.68751 16.3625Z" fill="#FF914D"/>
</g>
</g>
<path d="M56.81 26.209H50.91L58.935 5.02148H64.985L73.01 26.209H67.11L65.7475 22.4215H58.1725L56.81 26.209ZM59.535 18.484H64.385L61.96 11.3715L59.535 18.484Z" fill="black"/>
<path d="M81.6281 22.1217C82.7031 22.1217 83.9156 21.9217 85.2656 21.5217V10.1592H90.5656V26.2092H85.8781L85.5656 24.6967C84.6218 25.3217 83.6531 25.7811 82.6531 26.0717C81.6531 26.3623 80.8062 26.5092 80.1156 26.5092H78.7531C77.3843 26.5092 76.2843 26.0967 75.4531 25.2717C74.6281 24.4467 74.2156 23.3467 74.2156 21.9717V10.1592H79.5156V21.0592C79.5156 21.3686 79.6156 21.6217 79.8156 21.8217C80.0156 22.0217 80.2687 22.1217 80.5781 22.1217H81.6281Z" fill="black"/>
<path d="M104.79 26.2092C102.83 26.4092 100.915 26.5092 99.0396 26.5092C97.6646 26.5092 96.5646 26.0967 95.7396 25.2717C94.9146 24.4467 94.5021 23.3467 94.5021 21.9717V14.2467H92.6771V10.1592H94.5021L95.1021 6.53418H99.8021V10.1592H103.577V14.2467H99.8021V21.2092C99.8021 21.5186 99.9021 21.7717 100.102 21.9717C100.302 22.1717 100.552 22.2717 100.852 22.2717H104.79V26.2092Z" fill="black"/>
<path d="M123.259 21.6716C123.259 23.181 122.828 24.3654 121.972 25.2216C121.112 26.081 119.925 26.5091 118.409 26.5091H111.447C109.937 26.5091 108.753 26.081 107.897 25.2216C107.037 24.3654 106.609 23.181 106.609 21.6716V14.7091C106.609 13.1935 107.037 12.006 107.897 11.1466C108.753 10.2904 109.937 9.85913 111.447 9.85913H118.409C119.925 9.85913 121.112 10.2904 121.972 11.1466C122.828 12.006 123.259 13.1935 123.259 14.7091V21.6716ZM117.959 15.1591C117.959 14.3529 117.553 13.9466 116.747 13.9466H113.122C112.312 13.9466 111.909 14.3529 111.909 15.1591V21.2091C111.909 22.0185 112.312 22.4216 113.122 22.4216H116.747C117.553 22.4216 117.959 22.0185 117.959 21.2091V15.1591Z" fill="black"/>
<path d="M142.638 25.909C138.138 26.309 134.404 26.509 131.438 26.509C129.463 26.509 128.007 26.0465 127.076 25.1215C126.151 24.1902 125.688 22.734 125.688 20.759V11.0715C125.688 8.95586 126.166 7.41836 127.126 6.45898C128.082 5.50273 129.619 5.02148 131.738 5.02148H142.638V9.25899H132.951C131.741 9.25899 131.138 9.86524 131.138 11.0715V20.759C131.138 21.2277 131.269 21.5965 131.538 21.8715C131.813 22.1402 132.163 22.2715 132.588 22.2715C133.013 22.2715 133.476 22.2684 133.976 22.259C134.482 22.2527 135.007 22.2402 135.551 22.2215C136.101 22.1965 136.651 22.1777 137.201 22.159C137.757 22.134 138.476 22.0934 139.351 22.034C140.232 21.9684 141.329 21.8965 142.638 21.8215V25.909Z" fill="#FF914D"/>
<path d="M151.119 22.2716C152.185 22.2716 153.394 22.0716 154.744 21.6716V19.8466H150.357C150.057 19.8466 149.8 19.9529 149.594 20.1591C149.394 20.3591 149.294 20.6091 149.294 20.9091V21.2091C149.294 21.5185 149.394 21.7716 149.594 21.9716C149.8 22.1716 150.057 22.2716 150.357 22.2716H151.119ZM145.519 10.4716C149.21 10.0654 152.538 9.85913 155.507 9.85913C156.882 9.85913 157.982 10.2779 158.807 11.1091C159.632 11.9341 160.044 13.031 160.044 14.3966V26.2091H155.357L155.057 24.6966C154.107 25.3216 153.132 25.781 152.132 26.0716C151.132 26.3623 150.288 26.5091 149.607 26.5091H148.544C147.169 26.5091 146.069 26.0966 145.244 25.2716C144.419 24.4466 144.007 23.3466 144.007 21.9716V20.6091C144.007 19.2341 144.419 18.1341 145.244 17.3091C146.069 16.4841 147.169 16.0716 148.544 16.0716H154.744V14.8591C154.744 14.5529 154.644 14.2966 154.444 14.0966C154.244 13.8966 153.994 13.7966 153.694 13.7966C152.375 13.7966 150.925 13.8591 149.344 13.9841C147.76 14.1029 146.485 14.1904 145.519 14.2466V10.4716Z" fill="#FF914D"/>
<path d="M172.006 14.5591C170.731 14.5591 169.419 14.8591 168.069 15.4591V26.2091H162.769V10.1591H167.469L167.769 12.1341C169.5 10.6185 171.319 9.85913 173.219 9.85913H174.581V14.5591H172.006Z" fill="#FF914D"/>
<path d="M182.906 13.6466C182.097 13.6466 181.694 14.0529 181.694 14.8591V16.5216H186.831V14.8591C186.831 14.0529 186.431 13.6466 185.631 13.6466H182.906ZM191.531 25.9091C187.631 26.3091 184.097 26.5091 180.931 26.5091C179.556 26.5091 178.456 26.0966 177.631 25.2716C176.806 24.4466 176.394 23.3466 176.394 21.9716V14.7091C176.394 13.1935 176.822 12.006 177.681 11.1466C178.537 10.2904 179.722 9.85913 181.231 9.85913H187.294C188.8 9.85913 189.984 10.2904 190.844 11.1466C191.7 12.006 192.131 13.1935 192.131 14.7091V20.3091H181.694V21.5216C181.694 21.8216 181.794 22.0716 181.994 22.2716C182.194 22.4716 182.444 22.5716 182.744 22.5716C184.744 22.5716 187.672 22.4216 191.531 22.1216V25.9091Z" fill="#FF914D"/>
<mask id="mask3_464_944" style="mask-type:luminance" maskUnits="userSpaceOnUse" x="60" y="30" width="136" height="10">
<path d="M195.172 30.3999H60.7719V39.9999H195.172V30.3999Z" fill="white"/>
</mask>
<g mask="url(#mask3_464_944)">
<path d="M63.1813 37.0859H61.9062L63.6438 32.4734H64.9688L66.7063 37.0859H65.4313L65.1313 36.2609H63.4813L63.1813 37.0859ZM63.7813 35.4109H64.8313L64.3063 33.8609L63.7813 35.4109Z" fill="black"/>
<path d="M74.1592 32.4734H75.3467V35.8359C75.3467 36.2953 75.2404 36.6296 75.0342 36.8359C74.8248 37.0453 74.4873 37.1484 74.0217 37.1484H72.5092C72.0498 37.1484 71.7154 37.0453 71.5092 36.8359C71.2998 36.6296 71.1967 36.2953 71.1967 35.8359V32.4734H72.3717V35.8359C72.3717 36.0953 72.5029 36.2234 72.7717 36.2234H73.7592C74.0248 36.2234 74.1592 36.0953 74.1592 35.8359V32.4734Z" fill="black"/>
<path d="M82.5256 37.0859H81.3381V33.3984H79.9506V32.4734H83.9006V33.3984H82.5256V37.0859Z" fill="black"/>
<path d="M91.4859 33.7234C91.4859 33.4671 91.3515 33.3359 91.0859 33.3359H89.9734C89.7046 33.3359 89.5734 33.4671 89.5734 33.7234V35.8359C89.5734 36.0953 89.7046 36.2234 89.9734 36.2234H91.0859C91.3515 36.2234 91.4859 36.0953 91.4859 35.8359V33.7234ZM92.6734 35.8359C92.6734 36.2953 92.5671 36.6296 92.3609 36.8359C92.1515 37.0453 91.814 37.1484 91.3484 37.1484H89.6984C89.239 37.1484 88.9046 37.0453 88.6984 36.8359C88.489 36.6296 88.3859 36.2953 88.3859 35.8359V33.7234C88.3859 33.2671 88.489 32.9328 88.6984 32.7234C88.9046 32.5171 89.239 32.4109 89.6984 32.4109H91.3484C91.814 32.4109 92.1515 32.5171 92.3609 32.7234C92.5671 32.9328 92.6734 33.2671 92.6734 33.7234V35.8359Z" fill="black"/>
<path d="M103.473 36.1359C104.673 36.1953 105.486 36.2234 105.911 36.2234C106.011 36.2234 106.089 36.1953 106.148 36.1359C106.205 36.0796 106.236 35.9984 106.236 35.8984V35.3109H104.723C104.264 35.3109 103.93 35.2078 103.723 34.9984C103.514 34.7921 103.411 34.4546 103.411 33.9859V33.7984C103.411 33.3328 103.514 32.9953 103.723 32.7859C103.93 32.5796 104.264 32.4734 104.723 32.4734H107.036V33.3984H104.986C104.727 33.3984 104.598 33.5328 104.598 33.7984V33.9234C104.598 34.1921 104.727 34.3234 104.986 34.3234H106.173C106.605 34.3234 106.923 34.4234 107.123 34.6234C107.323 34.8234 107.423 35.1421 107.423 35.5734V35.8984C107.423 36.3328 107.323 36.6484 107.123 36.8484C106.923 37.0484 106.605 37.1484 106.173 37.1484C105.948 37.1484 105.711 37.1421 105.461 37.1359L104.861 37.1109C104.411 37.0859 103.948 37.0578 103.473 37.0234V36.1359Z" fill="black"/>
<path d="M115.825 37.0859H112.175V32.4734H115.825V33.3984H113.35V34.2859H115.3V35.2109H113.35V36.1609H115.825V37.0859Z" fill="black"/>
<path d="M120.51 32.4734H123.272C123.728 32.4734 124.063 32.5796 124.272 32.7859C124.478 32.9953 124.585 33.3328 124.585 33.7984V34.3859C124.585 34.7546 124.522 35.0359 124.397 35.2359C124.278 35.4359 124.091 35.5703 123.835 35.6359L124.66 37.0859H123.372L122.61 35.6984H121.685V37.0859H120.51V32.4734ZM123.397 33.7984C123.397 33.5328 123.266 33.3984 123.01 33.3984H121.685V34.7859H123.01C123.266 34.7859 123.397 34.6546 123.397 34.3859V33.7984Z" fill="black"/>
<path d="M131.341 35.6984L132.466 32.4734H133.741L132.003 37.0859H130.678L128.941 32.4734H130.216L131.341 35.6984Z" fill="black"/>
<path d="M140.406 37.0859H138.031V36.1609H138.619V33.3984H138.031V32.4734H140.406V33.3984H139.806V36.1609H140.406V37.0859Z" fill="black"/>
<path d="M148.699 37.0234C147.724 37.1046 146.912 37.1484 146.262 37.1484C145.837 37.1484 145.518 37.0484 145.312 36.8484C145.112 36.6484 145.012 36.3328 145.012 35.8984V33.7984C145.012 33.3328 145.115 32.9953 145.324 32.7859C145.531 32.5796 145.865 32.4734 146.324 32.4734H148.699V33.3984H146.599C146.331 33.3984 146.199 33.5328 146.199 33.7984V35.8984C146.199 35.9984 146.228 36.0796 146.287 36.1359C146.343 36.1953 146.418 36.2234 146.512 36.2234C146.603 36.2234 146.703 36.2234 146.812 36.2234C146.928 36.2234 147.043 36.2234 147.162 36.2234C147.278 36.2171 147.393 36.2109 147.512 36.2109C147.637 36.2046 147.793 36.1953 147.987 36.1859C148.178 36.1703 148.415 36.1546 148.699 36.1359V37.0234Z" fill="black"/>
<path d="M157.035 37.0859H153.385V32.4734H157.035V33.3984H154.56V34.2859H156.51V35.2109H154.56V36.1609H157.035V37.0859Z" fill="black"/>
<path d="M171.397 37.0234C170.422 37.1046 169.609 37.1484 168.959 37.1484C168.534 37.1484 168.215 37.0484 168.009 36.8484C167.809 36.6484 167.709 36.3328 167.709 35.8984V33.7984C167.709 33.3328 167.812 32.9953 168.022 32.7859C168.228 32.5796 168.562 32.4734 169.022 32.4734H171.397V33.3984H169.297C169.028 33.3984 168.897 33.5328 168.897 33.7984V35.8984C168.897 35.9984 168.925 36.0796 168.984 36.1359C169.04 36.1953 169.115 36.2234 169.209 36.2234C169.3 36.2234 169.4 36.2234 169.509 36.2234C169.625 36.2234 169.74 36.2234 169.859 36.2234C169.975 36.2171 170.09 36.2109 170.209 36.2109C170.334 36.2046 170.49 36.1953 170.684 36.1859C170.875 36.1703 171.112 36.1546 171.397 36.1359V37.0234Z" fill="black"/>
<path d="M176.082 32.4734H178.844C179.301 32.4734 179.635 32.5796 179.844 32.7859C180.051 32.9953 180.157 33.3328 180.157 33.7984V34.3859C180.157 34.7546 180.094 35.0359 179.969 35.2359C179.851 35.4359 179.663 35.5703 179.407 35.6359L180.232 37.0859H178.944L178.182 35.6984H177.257V37.0859H176.082V32.4734ZM178.969 33.7984C178.969 33.5328 178.838 33.3984 178.582 33.3984H177.257V34.7859H178.582C178.838 34.7859 178.969 34.6546 178.969 34.3859V33.7984Z" fill="black"/>
<path d="M188.926 34.5109L188.001 36.1609H187.076L186.151 34.5109V37.0859H184.976V32.4734H186.226L187.538 34.9109L188.863 32.4734H190.113V37.0859H188.926V34.5109Z" fill="black"/>
</g>
</svg>
