<svg width="55" height="55" viewBox="0 0 55 55" fill="none" xmlns="http://www.w3.org/2000/svg">
<circle cx="27.5" cy="27.5" r="27" fill="#F0F8F7" stroke="#DDDDEB"/>
<path d="M28 26C24.0218 26 20.2064 27.5804 17.3934 30.3934C14.5804 33.2064 13 37.0218 13 41C13 41.2652 13.1054 41.5196 13.2929 41.7071C13.4804 41.8946 13.7348 42 14 42H42C42.2652 42 42.5196 41.8946 42.7071 41.7071C42.8946 41.5196 43 41.2652 43 41C43 37.0218 41.4196 33.2064 38.6066 30.3934C35.7936 27.5804 31.9782 26 28 26Z" fill="#F16145"/>
<path d="M28 28C32.4183 28 36 24.4183 36 20C36 15.5817 32.4183 12 28 12C23.5817 12 20 15.5817 20 20C20 24.4183 23.5817 28 28 28Z" fill="#F68F71"/>
</svg>
