<svg width="15" height="19" viewBox="0 0 15 19" fill="none" xmlns="http://www.w3.org/2000/svg">
<path fill-rule="evenodd" clip-rule="evenodd" d="M2.16284 6.56235C3.2345 3.60143 4.70703 2.57153 7.12848 2.57153C9.54996 2.57153 11.0225 3.60143 12.0942 6.56235C12.1143 6.61868 12.1304 6.67673 12.1421 6.73565L13.5305 13.5649C13.6039 13.9162 13.5236 14.2838 13.3119 14.5652C13.1002 14.8467 12.7798 15.0117 12.4401 15.0144H9.65053C9.7137 15.7706 9.4784 16.5206 9.00063 17.0863C8.52273 17.652 7.84502 17.9829 7.12848 18.0001C6.41157 17.9829 5.7335 17.6518 5.25552 17.0855C4.7776 16.5193 4.54262 15.7685 4.60652 15.0119H1.81691C1.47723 15.0092 1.15687 14.8442 0.945188 14.5627C0.733509 14.2813 0.653153 13.9137 0.726533 13.5624L2.11491 6.73565C2.12665 6.67673 2.14266 6.61868 2.16284 6.56235Z" stroke="#FF914D" stroke-width="1.4" stroke-linejoin="round"/>
<path d="M9.3844 14.3604V14.7285H5.72913V14.3604H9.3844ZM8.76038 0.700195V1.06836H6.35413V0.700195H8.76038Z" fill="black" stroke="#FF914D" stroke-width="1.4"/>
</svg>
