<svg width="18" height="18" viewBox="0 0 18 18" fill="none" xmlns="http://www.w3.org/2000/svg">
<path fill-rule="evenodd" clip-rule="evenodd" d="M16.5122 12.6809L15.917 13.7201C15.7526 14.0076 15.389 14.1054 15.104 13.9397L13.4509 12.9773C12.6121 13.9319 11.4774 14.616 10.1898 14.88V16.2006C10.1898 16.5325 9.92397 16.8007 9.59516 16.8007H8.40471C8.0759 16.8007 7.81009 16.5325 7.81009 16.2006V14.88C6.52244 14.616 5.38779 13.9319 4.54896 12.9773L2.8959 13.9397C2.61088 14.1054 2.24727 14.0076 2.08286 13.7201L1.48764 12.6809C1.32323 12.3941 1.42104 12.0269 1.70545 11.8619L3.36511 10.8946C3.1677 10.2982 3.0495 9.66398 3.0495 9.00036C3.0495 8.33673 3.1677 7.7031 3.36511 7.10607L1.70545 6.13944C1.42104 5.97383 1.32323 5.60722 1.48764 5.31981L2.08286 4.28057C2.24727 3.99376 2.61088 3.89536 2.8959 4.06096L4.54896 5.02341C5.38779 4.06877 6.52244 3.38473 7.81009 3.12072V1.80007C7.81009 1.46826 8.0759 1.20005 8.40471 1.20005H9.59516C9.92397 1.20005 10.1898 1.46826 10.1898 1.80007V3.12072C11.4774 3.38473 12.6121 4.06877 13.4509 5.02341L15.104 4.06096C15.389 3.89536 15.7526 3.99376 15.917 4.28057L16.5122 5.31981C16.6766 5.60722 16.5788 5.97383 16.2944 6.13944L14.6348 7.10607C14.8322 7.7031 14.9504 8.33673 14.9504 9.00036C14.9504 9.66398 14.8322 10.2982 14.6348 10.8946L16.2944 11.8619C16.5788 12.0269 16.6766 12.3941 16.5122 12.6809ZM17.4051 11.122L16.0112 10.3108C16.0892 9.88479 16.1408 9.44977 16.1408 9.00036C16.1408 8.55154 16.0892 8.11593 16.0112 7.68991L17.4051 6.87867C17.9745 6.54745 18.1689 5.81303 17.8401 5.2394L16.6502 3.16093C16.322 2.58731 15.5936 2.3899 15.0248 2.72171L13.6165 3.54074C12.9589 2.97672 12.2113 2.51529 11.3802 2.21828V1.20005C11.3802 0.537621 10.8474 0 10.1898 0H7.81009C7.15246 0 6.61964 0.537621 6.61964 1.20005V2.21828C5.78861 2.51529 5.04098 2.97672 4.38335 3.54074L2.9751 2.72171C2.40627 2.3899 1.67785 2.58731 1.34963 3.16093L0.159784 5.2394C-0.169029 5.81303 0.0259779 6.54745 0.5948 6.87867L1.98866 7.68991C1.91066 8.11593 1.85905 8.55154 1.85905 9.00036C1.85905 9.44977 1.91066 9.88479 1.98866 10.3108L0.5948 11.122C0.0259779 11.4533 -0.169029 12.1877 0.159784 12.7613L1.34963 14.8398C1.67785 15.4134 2.40627 15.6108 2.9751 15.279L4.38335 14.46C5.04098 15.024 5.78861 15.486 6.61964 15.7824V16.8007C6.61964 17.4631 7.15246 18.0007 7.81009 18.0007H10.1898C10.8474 18.0007 11.3802 17.4631 11.3802 16.8007V15.7824C12.2113 15.486 12.9589 15.024 13.6165 14.46L15.0248 15.279C15.5936 15.6108 16.322 15.4134 16.6502 14.8398L17.8401 12.7613C18.1689 12.1877 17.9745 11.4533 17.4051 11.122ZM8.99994 10.8004C8.0141 10.8004 7.21487 9.9946 7.21487 9.00036C7.21487 8.00672 8.0141 7.20029 8.99994 7.20029C9.98577 7.20029 10.785 8.00672 10.785 9.00036C10.785 9.9946 9.98577 10.8004 8.99994 10.8004ZM8.99994 6.00024C7.35647 6.00024 6.02502 7.34309 6.02502 9.00036C6.02502 10.6576 7.35647 12.0005 8.99994 12.0005C10.6434 12.0005 11.9755 10.6576 11.9755 9.00036C11.9755 7.34309 10.6434 6.00024 8.99994 6.00024Z" fill="#FF914D"/>
</svg>
